<svg width="50" height="33" viewBox="0 0 50 33" fill="none" xmlns="http://www.w3.org/2000/svg">
<path fill-rule="evenodd" clip-rule="evenodd" d="M50 2.5C50 3.88071 48.8807 5 47.5 5H2.5C1.11929 5 0 3.88071 0 2.5V2.5C0 1.11929 1.11929 0 2.5 0H47.5C48.8807 0 50 1.11929 50 2.5V2.5Z" fill="#2C7F2A"/>
<path fill-rule="evenodd" clip-rule="evenodd" d="M50 30.5C50 31.8807 48.8807 33 47.5 33H2.5C1.11929 33 0 31.8807 0 30.5V30.5C0 29.1193 1.11929 28 2.5 28H47.5C48.8807 28 50 29.1193 50 30.5V30.5Z" fill="#2C7F2A"/>
<path fill-rule="evenodd" clip-rule="evenodd" d="M50 16.5C50 17.8807 48.8807 19 47.5 19H2.5C1.11929 19 0 17.8807 0 16.5V16.5C0 15.1193 1.11929 14 2.5 14H47.5C48.8807 14 50 15.1193 50 16.5V16.5Z" fill="#2C7F2A"/>
</svg>
