<svg width="33" height="33" viewBox="0 0 33 33" fill="none" xmlns="http://www.w3.org/2000/svg">
<path fill-rule="evenodd" clip-rule="evenodd" d="M1.73954 31.2605C0.778817 30.2998 0.778817 28.7421 1.73954 27.7814L27.7814 1.73955C28.7421 0.778829 30.2997 0.778828 31.2605 1.73955C32.2212 2.70027 32.2212 4.2579 31.2605 5.21862L5.21861 31.2605C4.25789 32.2212 2.70026 32.2212 1.73954 31.2605Z" fill="white"/>
<path fill-rule="evenodd" clip-rule="evenodd" d="M1.73947 1.73954C2.70019 0.778817 4.25782 0.778817 5.21854 1.73954L31.2604 27.7814C32.2211 28.7421 32.2211 30.2997 31.2604 31.2605C30.2997 32.2212 28.742 32.2212 27.7813 31.2605L1.73947 5.21861C0.778748 4.25789 0.778748 2.70026 1.73947 1.73954Z" fill="white"/>
</svg>
